<?xml version="1.0" encoding="UTF-8"?>
<!DOCTYPE svg PUBLIC "-//W3C//DTD SVG 1.1//EN" "http://www.w3.org/Graphics/SVG/1.1/DTD/svg11.dtd">
<!-- Creator: CorelDRAW X7 -->
<svg xmlns="http://www.w3.org/2000/svg" xml:space="preserve" width="256px" height="256px" version="1.1" style="shape-rendering:geometricPrecision; text-rendering:geometricPrecision; image-rendering:optimizeQuality; fill-rule:evenodd; clip-rule:evenodd"
viewBox="0 0 25600 25600"
 xmlns:xlink="http://www.w3.org/1999/xlink">
 <defs>
  <style type="text/css">
   <![CDATA[
    .fil1 {fill:#FEFEFE}
    .fil0 {fill:#373435}
   ]]>
  </style>
 </defs>
 <g id="Layer_x0020_1">
  <metadata id="CorelCorpID_0Corel-Layer"/>
  <g id="_315912824">
   <circle class="fil0" cx="12800" cy="12800" r="12800"/>
   <path class="fil1" d="M7110 16595c761,255 1624,192 2372,-246 1373,-804 1834,-2569 1030,-3942 -246,-422 -584,-757 -972,-996l0 -2c-440,-273 -959,-431 -1516,-431 -48,0 -97,1 -145,3 -14,-155 -22,-312 -22,-470 0,-2206 1445,-4074 3440,-4710 -13,-78 -19,-157 -19,-238 0,-840 681,-1521 1522,-1521 840,0 1522,681 1522,1521 0,81 -7,160 -19,238 1995,636 3440,2504 3440,4710 0,158 -8,316 -23,471 -48,-3 -97,-4 -147,-4 -555,0 -1073,157 -1513,430l0 3c-389,239 -726,574 -973,996 -804,1373 -342,3138 1031,3942 748,438 1611,501 2372,246 638,-214 1204,-650 1571,-1277 804,-1373 343,-3138 -1031,-3942 -174,-102 -355,-184 -539,-246 374,-495 835,-895 1349,-1191l23 14c968,566 1647,1435 1989,2416 82,-13 167,-21 254,-21 836,0 1514,678 1514,1515 0,836 -678,1514 -1514,1514 -86,0 -171,-7 -253,-21 -95,271 -218,538 -369,796 -412,703 -984,1255 -1643,1635 -1364,786 -3100,838 -4556,-14 -2159,-1265 -2885,-4040 -1621,-6199 539,-921 1353,-1581 2277,-1937 -382,-1376 -1643,-2386 -3141,-2386 -1498,0 -2759,1010 -3141,2386 923,356 1738,1016 2277,1937 1264,2159 538,4934 -1621,6199 -1456,852 -3192,800 -4556,14 -659,-380 -1232,-932 -1643,-1635 -151,-258 -274,-525 -369,-796 -82,14 -167,21 -253,21 -836,0 -1514,-678 -1514,-1514 0,-837 678,-1515 1514,-1515 87,0 171,8 254,21 342,-981 1021,-1850 1989,-2416l23 -14c514,296 975,696 1349,1191 -185,62 -365,144 -539,246 -1374,804 -1835,2569 -1031,3942 366,627 933,1063 1571,1277z"/>
  </g>
 </g>
</svg>
