<?xml version="1.0" encoding="UTF-8"?>
<!DOCTYPE svg PUBLIC "-//W3C//DTD SVG 1.1//EN" "http://www.w3.org/Graphics/SVG/1.1/DTD/svg11.dtd">
<!-- Creator: CorelDRAW X7 -->
<svg xmlns="http://www.w3.org/2000/svg" xml:space="preserve" width="512px" height="512px" version="1.1" style="shape-rendering:geometricPrecision; text-rendering:geometricPrecision; image-rendering:optimizeQuality; fill-rule:evenodd; clip-rule:evenodd"
viewBox="0 0 51200 51200"
 xmlns:xlink="http://www.w3.org/1999/xlink">
 <defs>
  <style type="text/css">
   <![CDATA[
    .fil2 {fill:#FEFEFE}
    .fil0 {fill:#0D78AC}
    .fil1 {fill:#0F6491}
   ]]>
  </style>
 </defs>
 <g id="Layer_x0020_1">
  <metadata id="CorelCorpID_0Corel-Layer"/>
  <g id="_364604552">
   <circle class="fil0" cx="25600" cy="25600" r="25600"/>
   <path class="fil1" d="M19084 22824l1 0 281 186c-92,-65 -186,-127 -282,-186zm31494 8405c-2565,11430 -12774,19971 -24978,19971 -1849,0 -3652,-198 -5391,-570l-15558 -20978c-432,-524 -692,-1195 -692,-1927 0,-1673 1356,-3029 3029,-3029 173,0 343,15 508,43 684,-1963 2043,-3702 3977,-4834l48 -28c1027,592 1949,1393 2696,2384l6531 8806c308,-433 551,-903 728,-1395l-5717 -7709c-30,-310 -45,-624 -45,-942 0,-4411 2890,-8148 6879,-9420 -24,-155 -37,-314 -37,-476 0,-1680 1363,-3042 3044,-3042 1050,0 1977,532 2524,1342l2131 2874c1294,692 2418,1664 3287,2835l4450 5999c516,-488 1083,-908 1687,-1256l48 28c1088,637 1994,1466 2700,2419l1760 2372 25 0c1045,0 1967,530 2511,1336l3855 5197zm-31212 -8219l276 206c-90,-72 -182,-140 -276,-206zm276 206l265 224c-86,-78 -175,-152 -265,-224zm265 224l252 241c-82,-83 -166,-164 -252,-241zm252 241l239 258c-78,-89 -158,-175 -239,-258zm239 258l224 275c-73,-95 -147,-186 -224,-275zm224 275l112 151c-37,-51 -74,-101 -112,-151zm-1305 -4941l164 -507c-61,166 -116,335 -164,507zm164 -507l203 -488c-74,159 -142,322 -203,488zm203 -488l240 -467c-86,152 -166,308 -240,467zm240 -467l276 -444c-98,144 -190,292 -276,444zm276 -444l310 -420c-109,136 -212,275 -310,420zm310 -420l341 -393c-119,126 -233,258 -341,393zm341 -393l371 -365c-128,117 -252,238 -371,365zm371 -365l400 -334c-138,106 -271,218 -400,334zm400 -334l425 -302c-146,95 -287,196 -425,302zm425 -302l450 -267c-154,83 -304,172 -450,267zm450 -267l472 -232c-160,71 -318,148 -472,232zm472 -232l493 -194c-168,58 -332,123 -493,194zm493 -194l511 -154c-173,44 -344,96 -511,154zm511 -154l528 -112c-178,30 -354,67 -528,112zm528 -112l543 -69c-183,15 -364,38 -543,69zm543 -69l556 -24c-187,0 -373,8 -556,24zm556 -24l556 24c-184,-16 -369,-24 -556,-24zm556 24l542 69c-178,-31 -359,-54 -542,-69zm542 69l528 112c-173,-44 -349,-82 -528,-112zm528 112l512 154c-168,-58 -338,-110 -512,-154zm512 154l492 194c-161,-72 -325,-136 -492,-194zm492 194l473 232c-154,-84 -312,-161 -473,-232zm473 232l449 267c-146,-95 -296,-184 -449,-267zm449 267l426 302c-138,-106 -280,-207 -426,-302zm426 302l399 334c-128,-116 -262,-228 -399,-334zm399 334l372 365c-119,-127 -243,-248 -372,-365zm372 365l341 393c-109,-136 -222,-267 -341,-393zm341 393l310 420c-98,-144 -202,-285 -310,-420zm3746 5052l0 1 94 -12 -94 11zm94 -11l204 -18c-68,5 -136,11 -204,18zm204 -18l205 -11c-68,3 -137,7 -205,11zm205 -11l208 -3c-70,0 -139,1 -208,3zm-23408 9342l-160 -212c51,72 105,143 160,212zm-160 -212l-151 -222c49,76 99,149 151,222zm-151 -222l-142 -230c45,78 93,155 142,230zm-142 -230l-273 -524c81,178 172,352 273,524zm-273 -524l-213 -538c61,181 133,361 213,538zm-213 -538l-157 -548c43,184 95,367 157,548zm-157 -548l-100 -555c24,186 58,371 100,555zm-100 -555l-45 -557c6,186 21,372 45,557zm-45 -557l9 -556c-12,184 -15,370 -9,556zm9 -556l62 -551c-29,182 -50,366 -62,551zm62 -551l114 -541c-46,179 -84,359 -114,541zm114 -541l166 -528c-64,174 -119,350 -166,528zm166 -528l215 -510c-80,167 -152,337 -215,510zm215 -510l264 -489c-96,159 -184,322 -264,489zm264 -489l313 -464c-113,150 -216,305 -313,464zm313 -464l358 -435c-127,140 -247,285 -358,435zm358 -435l405 -401c-142,128 -277,261 -405,401zm405 -401l450 -365c-157,115 -307,237 -450,365zm450 -365l494 -323c-172,100 -337,208 -494,323zm1296 -714l137 -52c-45,17 -91,34 -137,52zm137 -52l138 -48c-46,15 -92,31 -138,48zm1970 -353l208 3c-69,-2 -139,-3 -208,-3zm208 3l205 11c-68,-4 -137,-8 -205,-11zm205 11l204 18c-67,-7 -135,-13 -204,-18zm204 18l202 25c-67,-9 -134,-17 -202,-25zm202 25l199 32c-66,-11 -132,-22 -199,-32zm199 32l198 39c-66,-14 -132,-27 -198,-39zm198 39l194 46c-64,-17 -129,-32 -194,-46zm194 46l192 52c-63,-19 -127,-36 -192,-52zm192 52l190 58c-63,-20 -126,-40 -190,-58zm190 58l186 65c-62,-23 -124,-44 -186,-65zm186 65l184 71c-61,-25 -122,-49 -184,-71zm184 71l180 77c-59,-27 -119,-53 -180,-77zm180 77l178 83c-59,-29 -118,-57 -178,-83zm178 83l173 88c-57,-31 -115,-60 -173,-88zm173 88l171 94c-56,-32 -113,-63 -171,-94zm171 94l167 100c-55,-34 -111,-67 -167,-100z"/>
   <path class="fil2" d="M14220 33189c1522,510 3249,385 4743,-490 2747,-1608 3670,-5139 2062,-7886 -493,-842 -1168,-1513 -1945,-1992l0 -3c-881,-546 -1919,-862 -3031,-862 -97,0 -194,2 -290,7 -30,-310 -45,-624 -45,-942 0,-4412 2889,-8148 6879,-9420 -24,-155 -37,-314 -37,-476 0,-1680 1363,-3042 3044,-3042 1681,0 3043,1362 3043,3042 0,162 -12,321 -37,476 3990,1272 6880,5008 6880,9420 0,318 -16,632 -45,942 -98,-5 -196,-7 -294,-7 -1110,0 -2147,314 -3027,859l0 6c-777,479 -1452,1150 -1945,1992 -1608,2747 -685,6278 2062,7886 1494,875 3221,1000 4743,490 1276,-427 2409,-1300 3142,-2552 1608,-2747 685,-6277 -2062,-7885 -348,-204 -709,-368 -1077,-492 747,-990 1668,-1791 2696,-2383l48 28c1934,1132 3293,2871 3977,4834 165,-28 335,-43 508,-43 1673,0 3028,1356 3028,3029 0,1673 -1355,3029 -3028,3029 -173,0 -342,-15 -507,-43 -190,544 -435,1077 -736,1592 -824,1408 -1969,2510 -3287,3270 -2728,1572 -6200,1677 -9112,-28 -4319,-2528 -5770,-8079 -3241,-12398 1078,-1842 2706,-3162 4553,-3874 -764,-2752 -3287,-4772 -6282,-4772 -2996,0 -5519,2020 -6283,4772 1848,712 3476,2032 4554,3874 2529,4319 1077,9870 -3242,12398 -2911,1705 -6383,1600 -9111,28 -1318,-760 -2463,-1862 -3287,-3270 -302,-515 -546,-1048 -736,-1592 -165,28 -334,43 -507,43 -1673,0 -3029,-1356 -3029,-3029 0,-1673 1356,-3029 3029,-3029 173,0 343,15 508,43 684,-1963 2043,-3702 3977,-4834l48 -28c1027,592 1949,1393 2696,2383 -368,124 -729,288 -1077,492 -2747,1608 -3670,5138 -2063,7885 734,1252 1867,2125 3143,2552z"/>
  </g>
 </g>
</svg>
