<?xml version="1.0" encoding="UTF-8"?>
<!DOCTYPE svg PUBLIC "-//W3C//DTD SVG 1.1//EN" "http://www.w3.org/Graphics/SVG/1.1/DTD/svg11.dtd">
<!-- Creator: CorelDRAW X7 -->
<svg xmlns="http://www.w3.org/2000/svg" xml:space="preserve" width="512px" height="512px" version="1.1" style="shape-rendering:geometricPrecision; text-rendering:geometricPrecision; image-rendering:optimizeQuality; fill-rule:evenodd; clip-rule:evenodd"
viewBox="0 0 51200 51200"
 xmlns:xlink="http://www.w3.org/1999/xlink">
 <defs>
  <style type="text/css">
   <![CDATA[
    .fil1 {fill:#FEFEFE}
    .fil0 {fill:#373435}
   ]]>
  </style>
 </defs>
 <g id="Layer_x0020_1">
  <metadata id="CorelCorpID_0Corel-Layer"/>
  <g id="_317471720">
   <circle class="fil0" cx="25600" cy="25600" r="25600"/>
   <path class="fil1" d="M14220 33189c1522,510 3249,385 4743,-490 2747,-1608 3670,-5139 2062,-7886 -493,-842 -1168,-1513 -1945,-1992l0 -3c-881,-546 -1919,-862 -3031,-862 -97,0 -194,2 -290,7 -30,-310 -45,-624 -45,-942 0,-4412 2889,-8148 6879,-9420 -24,-155 -37,-314 -37,-476 0,-1680 1363,-3042 3044,-3042 1681,0 3043,1362 3043,3042 0,162 -12,321 -37,476 3990,1272 6880,5008 6880,9420 0,318 -16,632 -45,942 -98,-5 -196,-7 -294,-7 -1110,0 -2147,314 -3027,859l0 6c-777,479 -1452,1150 -1945,1992 -1608,2747 -685,6278 2062,7886 1494,875 3221,1000 4743,490 1276,-427 2409,-1300 3142,-2552 1608,-2747 685,-6277 -2062,-7885 -348,-204 -709,-368 -1077,-492 747,-990 1668,-1791 2696,-2383l48 28c1934,1132 3293,2871 3977,4834 165,-28 335,-43 508,-43 1673,0 3028,1356 3028,3029 0,1673 -1355,3029 -3028,3029 -173,0 -342,-15 -507,-43 -190,544 -435,1077 -736,1592 -824,1408 -1969,2510 -3287,3270 -2728,1572 -6200,1677 -9112,-28 -4319,-2528 -5770,-8079 -3241,-12398 1078,-1842 2706,-3162 4553,-3874 -764,-2752 -3287,-4772 -6282,-4772 -2996,0 -5519,2020 -6283,4772 1848,712 3476,2032 4554,3874 2529,4319 1077,9870 -3242,12398 -2911,1705 -6383,1600 -9111,28 -1318,-760 -2463,-1862 -3287,-3270 -302,-515 -546,-1048 -736,-1592 -165,28 -334,43 -507,43 -1673,0 -3029,-1356 -3029,-3029 0,-1673 1356,-3029 3029,-3029 173,0 343,15 508,43 684,-1963 2043,-3702 3977,-4834l48 -28c1027,592 1949,1393 2696,2383 -368,124 -729,288 -1077,492 -2747,1608 -3670,5138 -2063,7885 734,1252 1867,2125 3143,2552z"/>
  </g>
 </g>
</svg>
