<?xml version="1.0" encoding="UTF-8"?>
<!DOCTYPE svg PUBLIC "-//W3C//DTD SVG 1.1//EN" "http://www.w3.org/Graphics/SVG/1.1/DTD/svg11.dtd">
<!-- Creator: CorelDRAW X7 -->
<svg xmlns="http://www.w3.org/2000/svg" xml:space="preserve" width="512px" height="121px" version="1.1" style="shape-rendering:geometricPrecision; text-rendering:geometricPrecision; image-rendering:optimizeQuality; fill-rule:evenodd; clip-rule:evenodd"
viewBox="0 0 51200 12100"
 xmlns:xlink="http://www.w3.org/1999/xlink">
 <defs>
  <style type="text/css">
   <![CDATA[
    .fil0 {fill:#373435}
   ]]>
  </style>
 </defs>
 <g id="Layer_x0020_1">
  <metadata id="CorelCorpID_0Corel-Layer"/>
  <path class="fil0" d="M4273 10580c636,213 1357,161 1981,-205 1147,-671 1533,-2146 861,-3293 -206,-352 -487,-632 -812,-832l0 -1c-368,-229 -801,-361 -1266,-361 -41,0 -81,1 -121,3 -12,-129 -19,-260 -19,-393 0,-1848 1214,-3412 2887,-3939 -19,-87 -29,-178 -29,-272 0,-702 569,-1270 1271,-1270 702,0 1271,568 1271,1270 0,94 -10,185 -29,272 1674,527 2887,2091 2887,3939 0,133 -6,264 -19,394 -40,-3 -81,-4 -123,-4 -463,0 -896,132 -1264,359l0 3c-324,200 -606,480 -812,832 -672,1147 -286,2622 861,3293 624,366 1345,418 1981,205 533,-178 1006,-543 1313,-1066 671,-1147 286,-2622 -862,-3293 -145,-85 -296,-154 -450,-205 312,-414 697,-748 1126,-996l20 12c808,473 1376,1199 1661,2019 69,-12 140,-18 213,-18 698,0 1265,566 1265,1265 0,699 -567,1265 -1265,1265 -73,0 -143,-6 -212,-18 -80,227 -182,450 -308,665 -344,588 -822,1048 -1372,1366 -1140,656 -2590,700 -3806,-12 -1804,-1056 -2410,-3374 -1354,-5178 450,-769 1130,-1320 1902,-1618 -319,-1149 -1373,-1993 -2624,-1993 -1251,0 -2305,844 -2624,1993 772,298 1452,849 1902,1618 1056,1804 450,4122 -1354,5178 -1216,712 -2666,668 -3805,12 -551,-318 -1029,-778 -1373,-1366 -126,-215 -228,-438 -308,-665 -68,12 -139,18 -211,18 -699,0 -1265,-566 -1265,-1265 0,-699 566,-1265 1265,-1265 72,0 143,6 212,18 286,-820 853,-1546 1661,-2019l20 -12c429,248 814,582 1126,996 -154,51 -304,120 -450,205 -1147,671 -1533,2146 -861,3293 306,523 779,888 1312,1066zm43860 -4565l874 0 0 2036c262,-305 561,-458 897,-458 355,0 661,153 919,458 260,304 389,671 389,1100 0,406 -127,760 -381,1062 -255,301 -551,452 -888,452 -170,0 -327,-43 -470,-128 -143,-85 -298,-221 -466,-408l0 479 -874 0 0 -4593zm1515 2459c-175,0 -320,62 -437,186 -117,126 -176,294 -176,504 0,202 61,369 185,500 123,132 277,197 462,197 170,0 311,-64 424,-193 113,-129 169,-293 169,-490 0,-192 -61,-358 -184,-497 -123,-138 -270,-207 -443,-207zm-5040 -825l895 0 0 1423c0,206 51,376 155,514 104,137 232,205 384,205 162,0 298,-66 408,-198 110,-133 166,-300 166,-499l0 -1445 894 0 0 1725c0,366 -138,673 -416,920 -279,247 -624,371 -1038,371 -440,0 -791,-125 -1054,-373 -263,-248 -394,-578 -394,-991l0 -1652zm-4234 -1557l972 0 0 1740 1606 0 0 -1740 973 0 0 4516 -973 0 0 -1796 -1606 0 0 1796 -972 0 0 -4516zm-3240 4516l0 -507 -14 0c-137,198 -274,342 -414,431 -140,88 -312,133 -518,133 -345,0 -639,-149 -881,-448 -243,-298 -364,-660 -364,-1087 0,-422 130,-783 388,-1085 258,-302 565,-452 919,-452 169,0 321,37 456,111 135,74 278,192 428,354l0 -409 881 0 0 2959 -881 0zm-644 -2134c-174,0 -318,69 -435,207 -116,139 -175,314 -175,524 0,197 56,356 166,476 111,121 257,180 437,180 174,0 323,-69 446,-207 123,-139 184,-307 184,-504 0,-183 -61,-342 -184,-476 -123,-134 -270,-200 -439,-200zm-3077 -1919c0,-149 54,-277 160,-385 108,-108 237,-162 389,-162 151,0 281,54 389,162 107,108 161,236 161,385 0,153 -54,282 -161,390 -108,108 -238,162 -389,162 -152,0 -281,-54 -389,-162 -106,-108 -160,-237 -160,-390zm112 1094l881 0 0 2959 -881 0 0 -2959zm-1602 -1634l887 0 0 4593 -866 0 0 -507 -14 0c-257,371 -577,557 -960,557 -340,0 -630,-148 -871,-444 -241,-296 -360,-657 -360,-1084 0,-426 124,-790 372,-1092 249,-302 547,-452 894,-452 198,0 365,36 500,108 136,72 276,188 418,350l0 -2029zm-655 2445c-146,0 -282,66 -409,199 -127,133 -190,312 -190,539 0,181 56,336 168,464 111,128 247,192 407,192 189,0 348,-69 474,-207 127,-139 191,-312 191,-517 0,-180 -63,-336 -186,-470 -123,-134 -275,-200 -455,-200zm-1938 880l-2106 0c11,190 74,344 188,463 112,118 245,178 396,178 270,0 483,-122 637,-366l808 269c-301,525 -767,788 -1400,788 -466,0 -836,-141 -1111,-423 -276,-283 -413,-662 -413,-1139 0,-429 144,-789 434,-1080 290,-292 647,-437 1071,-437 426,0 783,153 1069,459 285,306 427,688 427,1147l0 141zm-2106 -592l1197 0c-83,-371 -273,-556 -570,-556 -172,0 -313,48 -425,145 -112,97 -179,234 -202,411zm-5864 -2656l1159 0 847 2706 849 -2706 1117 0 574 4516 -924 0 -397 -3177 -997 3177 -442 0 -1020 -3205 -378 3205 -943 0 555 -4516z"/>
 </g>
</svg>
