<?xml version="1.0" encoding="UTF-8"?>
<!DOCTYPE svg PUBLIC "-//W3C//DTD SVG 1.1//EN" "http://www.w3.org/Graphics/SVG/1.1/DTD/svg11.dtd">
<!-- Creator: CorelDRAW X7 -->
<svg xmlns="http://www.w3.org/2000/svg" xml:space="preserve" width="1024px" height="241px" version="1.1" style="shape-rendering:geometricPrecision; text-rendering:geometricPrecision; image-rendering:optimizeQuality; fill-rule:evenodd; clip-rule:evenodd"
viewBox="0 0 102400 24100"
 xmlns:xlink="http://www.w3.org/1999/xlink">
 <defs>
  <style type="text/css">
   <![CDATA[
    .fil0 {fill:#373435}
   ]]>
  </style>
 </defs>
 <g id="Layer_x0020_1">
  <metadata id="CorelCorpID_0Corel-Layer"/>
  <path class="fil0" d="M8563 21107c1271,426 2713,321 3961,-410 2293,-1342 3064,-4290 1721,-6584 -412,-703 -975,-1264 -1624,-1663l0 -3c-735,-456 -1602,-720 -2531,-720 -81,0 -162,2 -242,6 -24,-259 -37,-521 -37,-786 0,-3694 2426,-6821 5771,-7875 -38,-175 -58,-357 -58,-544 0,-1403 1138,-2540 2541,-2540 1404,0 2542,1137 2542,2540 0,187 -21,369 -59,544 3346,1054 5772,4181 5772,7875 0,265 -13,527 -37,786 -82,-4 -164,-6 -246,-6 -927,0 -1793,263 -2527,718l0 5c-649,399 -1213,960 -1625,1663 -1342,2294 -571,5242 1722,6584 1248,731 2689,836 3961,410 1065,-357 2011,-1086 2623,-2131 1343,-2294 572,-5242 -1721,-6584 -291,-171 -593,-307 -900,-411 624,-827 1393,-1495 2251,-1990l40 24c1615,945 2750,2397 3321,4036 138,-23 279,-36 424,-36 1397,0 2529,1133 2529,2529 0,1397 -1132,2529 -2529,2529 -144,0 -285,-12 -423,-35 -159,454 -363,899 -615,1329 -688,1175 -1644,2096 -2745,2730 -2277,1313 -5176,1400 -7607,-23 -3607,-2111 -4818,-6746 -2707,-10352 900,-1538 2259,-2640 3802,-3235 -638,-2298 -2745,-3984 -5246,-3984 -2501,0 -4608,1686 -5246,3984 1543,595 2903,1697 3803,3235 2111,3606 899,8241 -2707,10352 -2431,1423 -5330,1336 -7608,23 -1100,-634 -2056,-1555 -2744,-2730 -252,-430 -456,-875 -615,-1329 -138,23 -279,35 -423,35 -1397,0 -2529,-1132 -2529,-2529 0,-1396 1132,-2529 2529,-2529 144,0 286,13 424,36 571,-1639 1706,-3091 3321,-4036l40 -24c858,495 1627,1163 2251,1990 -307,104 -609,240 -900,411 -2293,1342 -3064,4290 -1722,6584 613,1045 1559,1774 2624,2131zm87686 -9127l1747 0 0 4070c523,-610 1122,-915 1793,-915 709,0 1322,305 1838,915 519,608 777,1343 777,2200 0,812 -253,1518 -763,2122 -509,603 -1101,904 -1774,904 -341,0 -653,-85 -939,-256 -287,-169 -597,-442 -932,-815l0 958 -1747 0 0 -9183zm3028 4915c-349,0 -641,125 -873,374 -235,251 -352,586 -352,1006 0,404 122,738 369,1001 246,262 553,394 924,394 341,0 622,-129 848,-387 225,-259 338,-585 338,-979 0,-385 -122,-716 -369,-993 -246,-277 -540,-416 -885,-416zm-10076 -1648l1788 0 0 2845c0,411 104,752 310,1026 209,275 465,411 768,411 324,0 596,-132 817,-397 220,-265 331,-598 331,-997l0 -2888 1789 0 0 3449c0,732 -277,1345 -834,1838 -556,495 -1246,742 -2075,742 -878,0 -1580,-249 -2106,-745 -525,-497 -788,-1157 -788,-1981l0 -3303zm-8465 -3113l1943 0 0 3479 3212 0 0 -3479 1944 0 0 9029 -1944 0 0 -3592 -3212 0 0 3592 -1943 0 0 -9029zm-6476 9029l0 -1014 -28 0c-275,397 -550,683 -829,861 -279,176 -624,266 -1035,266 -691,0 -1277,-299 -1761,-895 -486,-596 -728,-1319 -728,-2174 0,-842 259,-1565 775,-2169 516,-603 1129,-903 1838,-903 338,0 641,75 911,223 270,148 556,382 857,706l0 -817 1760 0 0 5916 -1760 0zm-1289 -4268c-348,0 -636,139 -869,416 -232,277 -349,626 -349,1047 0,394 110,711 331,950 223,242 514,362 873,362 347,0 645,-139 892,-416 246,-277 368,-612 368,-1007 0,-366 -122,-683 -368,-950 -247,-268 -540,-402 -878,-402zm-6152 -3836c0,-298 108,-554 321,-770 216,-215 475,-324 777,-324 303,0 561,109 778,324 213,216 321,472 321,770 0,306 -108,564 -321,780 -217,216 -475,324 -778,324 -302,0 -561,-108 -777,-324 -213,-216 -321,-474 -321,-780zm225 2188l1761 0 0 5916 -1761 0 0 -5916zm-3204 -3267l1775 0 0 9183 -1732 0 0 -1014 -28 0c-515,742 -1153,1113 -1918,1113 -681,0 -1261,-296 -1742,-888 -481,-591 -721,-1312 -721,-2167 0,-852 249,-1579 744,-2183 498,-603 1094,-903 1787,-903 396,0 730,72 1000,216 272,143 551,375 835,699l0 -4056zm-1309 4887c-292,0 -564,134 -817,399 -254,265 -381,625 -381,1077 0,362 113,672 336,928 223,256 495,385 815,385 378,0 695,-139 948,-416 254,-277 380,-622 380,-1033 0,-359 -124,-671 -371,-938 -246,-268 -549,-402 -910,-402zm-3874 1761l-4211 0c24,380 148,688 376,925 225,237 490,356 793,356 540,0 965,-244 1272,-732l1615 537c-601,1050 -1533,1576 -2798,1576 -932,0 -1671,-282 -2220,-845 -552,-566 -827,-1324 -827,-2278 0,-856 289,-1577 869,-2159 580,-582 1293,-873 2141,-873 852,0 1565,305 2136,917 570,613 854,1376 854,2294l0 282zm-4211 -1183l2394 0c-166,-742 -547,-1113 -1140,-1113 -343,0 -625,96 -850,291 -223,192 -357,467 -404,822zm-11723 -5311l2317 0 1695 5409 1697 -5409 2232 0 1148 9029 -1847 0 -794 -6352 -1993 6352 -885 0 -2037 -6409 -756 6409 -1885 0 1108 -9029z"/>
 </g>
</svg>
