<?xml version="1.0" encoding="UTF-8"?>
<!DOCTYPE svg PUBLIC "-//W3C//DTD SVG 1.1//EN" "http://www.w3.org/Graphics/SVG/1.1/DTD/svg11.dtd">
<!-- Creator: CorelDRAW X7 -->
<svg xmlns="http://www.w3.org/2000/svg" xml:space="preserve" width="256px" height="256px" version="1.1" style="shape-rendering:geometricPrecision; text-rendering:geometricPrecision; image-rendering:optimizeQuality; fill-rule:evenodd; clip-rule:evenodd"
viewBox="0 0 25600 25600"
 xmlns:xlink="http://www.w3.org/1999/xlink">
 <defs>
  <style type="text/css">
   <![CDATA[
    .fil2 {fill:#373435}
    .fil0 {fill:#F8C22D}
    .fil1 {fill:#DFA738}
   ]]>
  </style>
 </defs>
 <g id="Layer_x0020_1">
  <metadata id="CorelCorpID_0Corel-Layer"/>
  <g id="_364412808">
   <circle class="fil0" cx="12800" cy="12800" r="12800"/>
   <path class="fil1" d="M9542 11412l0 0 141 93c-46,-33 -93,-64 -141,-93zm15747 4202c-1283,5716 -6387,9986 -12489,9986 -925,0 -1826,-99 -2695,-285l-7780 -10489c-216,-262 -345,-598 -345,-963 0,-837 678,-1515 1514,-1515 87,0 171,8 254,21 342,-981 1021,-1850 1989,-2416l23 -14c514,296 975,696 1349,1191l3265 4403c154,-216 276,-451 364,-697l-2859 -3854c-14,-156 -22,-313 -22,-471 0,-2206 1445,-4074 3439,-4710 -12,-78 -18,-157 -18,-238 0,-840 681,-1521 1522,-1521 525,0 988,266 1262,670l1066 1437c647,347 1208,832 1643,1418l2225 2999c258,-244 542,-453 844,-627l23 14c544,318 997,732 1350,1209l881 1186 12 0c522,0 984,265 1256,668l1927 2598zm-15606 -4109l138 103c-45,-36 -91,-70 -138,-103zm138 103l132 112c-43,-39 -87,-76 -132,-112zm132 112l126 120c-41,-41 -83,-81 -126,-120zm126 120l120 129c-39,-44 -79,-87 -120,-129zm120 129l112 138c-36,-47 -74,-93 -112,-138zm112 138l56 75c-18,-25 -37,-50 -56,-75zm-652 -2470l81 -254c-30,83 -57,168 -81,254zm81 -254l102 -244c-37,80 -71,161 -102,244zm102 -244l120 -234c-43,76 -83,154 -120,234zm120 -234l138 -222c-49,72 -95,146 -138,222zm138 -222l155 -210c-54,68 -106,138 -155,210zm155 -210l171 -196c-60,63 -117,129 -171,196zm171 -196l185 -182c-64,58 -126,119 -185,182zm185 -182l200 -167c-69,53 -135,108 -200,167zm200 -167l213 -151c-73,47 -144,98 -213,151zm213 -151l224 -134c-76,41 -151,86 -224,134zm224 -134l237 -116c-81,35 -160,74 -237,116zm237 -116l246 -97c-84,29 -166,61 -246,97zm246 -97l256 -77c-87,22 -172,48 -256,77zm256 -77l264 -56c-90,15 -178,34 -264,56zm264 -56l271 -35c-92,8 -182,20 -271,35zm271 -35l278 -11c-94,0 -186,3 -278,11zm278 -11l278 11c-92,-8 -185,-11 -278,-11zm278 11l271 35c-89,-15 -180,-27 -271,-35zm271 35l264 56c-87,-22 -174,-41 -264,-56zm264 56l256 77c-84,-29 -169,-55 -256,-77zm256 77l246 97c-80,-36 -162,-68 -246,-97zm246 97l236 116c-77,-42 -155,-81 -236,-116zm236 116l225 134c-73,-48 -148,-92 -225,-134zm225 134l213 151c-69,-53 -140,-104 -213,-151zm213 151l200 167c-65,-59 -131,-114 -200,-167zm200 167l185 182c-59,-63 -121,-124 -185,-182zm185 182l171 196c-54,-67 -111,-133 -171,-196zm171 196l155 210c-49,-72 -101,-142 -155,-210zm1873 2527l0 0 47 -6 -47 6zm47 -6l102 -9c-34,3 -68,6 -102,9zm102 -9l103 -5c-35,1 -69,3 -103,5zm103 -5l103 -2c-34,0 -69,0 -103,2zm-11705 4670l-80 -106c26,36 53,72 80,106zm-80 -106l-75 -110c24,37 49,74 75,110zm-75 -110l-71 -116c23,40 46,78 71,116zm-71 -116l-136 -261c40,88 85,176 136,261zm-136 -261l-107 -269c31,90 66,180 107,269zm-107 -269l-78 -275c21,93 47,184 78,275zm-78 -275l-51 -277c13,93 29,185 51,277zm-51 -277l-22 -279c3,93 10,186 22,279zm-22 -279l5 -278c-6,93 -8,186 -5,278zm5 -278l31 -275c-15,91 -25,183 -31,275zm31 -275l57 -270c-24,89 -43,179 -57,270zm57 -270l82 -264c-31,86 -59,174 -82,264zm82 -264l108 -256c-40,84 -76,169 -108,256zm108 -256l132 -244c-48,79 -92,161 -132,244zm132 -244l156 -232c-56,75 -108,152 -156,232zm156 -232l180 -217c-64,69 -124,142 -180,217zm180 -217l202 -201c-71,64 -139,131 -202,201zm202 -201l225 -182c-79,57 -154,118 -225,182zm225 -182l247 -162c-86,50 -168,104 -247,162zm648 -358l69 -26c-23,9 -46,17 -69,26zm69 -26l69 -24c-23,8 -46,16 -69,24zm984 -176l104 2c-34,-2 -69,-2 -104,-2zm104 2l103 5c-34,-2 -68,-4 -103,-5zm103 5l102 9c-34,-3 -68,-6 -102,-9zm102 9l101 13c-34,-5 -67,-9 -101,-13zm101 13l100 16c-33,-6 -67,-12 -100,-16zm100 16l98 19c-32,-7 -65,-13 -98,-19zm98 19l98 23c-33,-8 -65,-16 -98,-23zm98 23l96 26c-32,-9 -64,-18 -96,-26zm96 26l94 29c-31,-10 -63,-20 -94,-29zm94 29l94 32c-31,-11 -62,-22 -94,-32zm94 32l92 36c-31,-12 -62,-24 -92,-36zm92 36l90 38c-30,-13 -60,-26 -90,-38zm90 38l88 42c-29,-15 -59,-28 -88,-42zm88 42l87 44c-29,-15 -58,-30 -87,-44zm87 44l86 47c-29,-16 -57,-32 -86,-47zm86 47l83 50c-28,-17 -55,-34 -83,-50z"/>
   <path class="fil2" d="M7110 16595c761,255 1624,192 2372,-246 1373,-804 1834,-2569 1030,-3942 -246,-422 -584,-757 -972,-996l0 -2c-440,-273 -959,-431 -1516,-431 -48,0 -97,1 -145,3 -14,-155 -22,-312 -22,-470 0,-2206 1445,-4074 3440,-4710 -13,-78 -19,-157 -19,-238 0,-840 681,-1521 1522,-1521 840,0 1522,681 1522,1521 0,81 -7,160 -19,238 1995,636 3440,2504 3440,4710 0,158 -8,316 -23,471 -48,-3 -97,-4 -147,-4 -555,0 -1073,157 -1513,430l0 3c-389,239 -726,574 -973,996 -804,1373 -342,3138 1031,3942 748,438 1611,501 2372,246 638,-214 1204,-650 1571,-1277 804,-1373 343,-3138 -1031,-3942 -174,-102 -355,-184 -539,-246 374,-495 835,-895 1349,-1191l23 14c968,566 1647,1435 1989,2416 82,-13 167,-21 254,-21 836,0 1514,678 1514,1515 0,836 -678,1514 -1514,1514 -86,0 -171,-7 -253,-21 -95,271 -218,538 -369,796 -412,703 -984,1255 -1643,1635 -1364,786 -3100,838 -4556,-14 -2159,-1265 -2885,-4040 -1621,-6199 539,-921 1353,-1581 2277,-1937 -382,-1376 -1643,-2386 -3141,-2386 -1498,0 -2759,1010 -3141,2386 923,356 1738,1016 2277,1937 1264,2159 538,4934 -1621,6199 -1456,852 -3192,800 -4556,14 -659,-380 -1232,-932 -1643,-1635 -151,-258 -274,-525 -369,-796 -82,14 -167,21 -253,21 -836,0 -1514,-678 -1514,-1514 0,-837 678,-1515 1514,-1515 87,0 171,8 254,21 342,-981 1021,-1850 1989,-2416l23 -14c514,296 975,696 1349,1191 -185,62 -365,144 -539,246 -1374,804 -1835,2569 -1031,3942 366,627 933,1063 1571,1277z"/>
  </g>
 </g>
</svg>
